<svg width="1080" height="1080" viewBox="0 0 1080 1080" fill="none" xmlns="http://www.w3.org/2000/svg">
<path d="M1080 540C1080 838.234 838.234 1080 540 1080C241.766 1080 0 838.234 0 540C0 241.766 241.766 0 540 0C838.234 0 1080 241.766 1080 540Z" fill="white"/>
<path fill-rule="evenodd" clip-rule="evenodd" d="M182.911 425.911L275.821 518.821L313.143 481.501L350.465 444.179L294.883 388.591L239.301 333H164.651H90L182.911 425.911ZM319.766 394.414L381.171 455.827L235.587 601.414L90.0023 747.003H164.646H239.29L389.668 596.627L540.046 446.251L544.766 451.061L549.485 455.868L403.921 601.434L258.355 747.003H332.994H407.631L431.71 722.94L455.788 698.88L460.588 703.591L465.389 708.301L446.057 727.651L426.727 747.003H540.001H653.275L633.945 727.651L614.614 708.301L619.414 703.591L624.214 698.88L648.293 722.94L672.371 747.003H747.008H821.643L760.236 685.589L698.831 624.175L844.416 478.589L990 333H915.356H840.712L690.334 483.376L539.956 633.751L535.237 628.942L530.517 624.135L676.081 478.569L821.648 333H747.008H672.371L648.293 357.063L624.214 381.123L619.414 376.412L614.614 371.702L633.945 352.352L653.275 333H540.001H426.727L446.057 352.352L465.389 371.702L460.588 376.412L455.788 381.123L431.71 357.063L407.631 333H332.994H258.359L319.766 394.414ZM769.767 601.944L732.717 639.003L786.71 693.003L840.701 747.003H915.349H990L898.944 655.944C848.863 605.862 807.649 564.883 807.352 564.883C807.056 564.883 790.142 581.561 769.767 601.944Z" fill="url(#paint0_linear_14_2)"/>
<defs>
<linearGradient id="paint0_linear_14_2" x1="171.5" y1="513" x2="1281" y2="540" gradientUnits="userSpaceOnUse">
<stop/>
<stop offset="0.65625" stop-color="#505050"/>
<stop offset="1" stop-color="white"/>
</linearGradient>
</defs>
</svg>
